<?xml version="1.0" encoding="utf-8"?>
<!-- Generator: Adobe Illustrator 16.0.0, SVG Export Plug-In . SVG Version: 6.00 Build 0)  -->
<!DOCTYPE svg PUBLIC "-//W3C//DTD SVG 1.1//EN" "http://www.w3.org/Graphics/SVG/1.1/DTD/svg11.dtd">
<svg version="1.1" id="Layer_1" xmlns="http://www.w3.org/2000/svg" xmlns:xlink="http://www.w3.org/1999/xlink" x="0px" y="0px"
	 width="912.333px" height="206.667px" viewBox="0 0 912.333 206.667" enable-background="new 0 0 912.333 206.667"
	 xml:space="preserve">
<g>
	<path fill="#214670" d="M67.779,39.165H19.896c-5.239-0.763-9.468-2.614-12.693-5.551c-3.221-2.936-4.832-6.611-4.832-11.014
		v-4.118c0-4.407,1.657-8.173,4.976-11.302c3.323-3.127,7.408-4.694,12.262-4.694L93.062,2.39v14.749l-65.697,0.097v8.522h47.79
		c5.234,0.511,9.525,1.979,12.88,4.406c3.351,2.426,5.027,5.844,5.027,10.248v7.182c0,4.471-1.725,8.269-5.172,11.397
		c-3.451,3.13-7.566,4.693-12.354,4.693H2.277V49.345l65.502,0.068V39.165z"/>
</g>
<g>
	<path fill="#214670" d="M188.349,7.179c3.192,3.129,4.789,6.928,4.789,11.396v29.018c0,4.471-1.596,8.269-4.789,11.397
		c-3.191,3.13-7.054,4.693-11.587,4.693h-57.558c-4.469,0-8.284-1.563-11.446-4.693c-3.159-3.128-4.739-6.927-4.739-11.397V18.576
		c0-4.469,1.58-8.267,4.739-11.396c3.163-3.127,6.977-4.694,11.446-4.694h57.558C181.295,2.485,185.158,4.052,188.349,7.179z
		 M169.867,17.091h-43.671v32.254h43.671V17.091z"/>
</g>
<g>
	<path fill="#214670" d="M270.041,2.485h23.368v45.108c0,4.471-1.581,8.269-4.745,11.397c-3.159,3.13-6.941,4.693-11.346,4.693
		h-36.966h-20.878c-4.598,0-8.493-1.595-11.685-4.788c-3.193-3.191-4.787-7.087-4.787-11.686l0.192-8.521l0.095-36.203h23.079
		v46.859h43.862L270.041,2.485z"/>
</g>
<g>
	<path fill="#214670" d="M326.542,63.684h-23.846V2.485h70.774c4.53,0,8.425,1.567,11.682,4.694
		c3.255,3.129,4.884,6.928,4.884,11.396v7.183c0,3.641-1.15,6.895-3.45,9.769c-2.298,2.874-6.192,4.725-11.679,5.554l81.884,105.407
		l300.558,0.449l12.519,16.095H444.12L343.112,27.482h22.982V17.236h-39.552V63.684z"/>
</g>
<g>
	<path fill="#214670" d="M426.046,49.392h43.767h22.89v14.292h-73.744c-4.404,0-8.189-1.563-11.351-4.693
		c-3.162-3.128-4.74-6.927-4.74-11.397V18.576c0-4.469,1.578-8.267,4.74-11.396c3.162-3.127,6.947-4.694,11.351-4.694h74.03
		l-0.096,14.682h-66.847V49.392z"/>
</g>
<g>
	<path fill="#214670" d="M525.931,26.143l62.443,0.286v13.024l-62.443-0.289v10.227h43.765h22.891l0.285,14.292h-74.028
		c-4.403,0-8.188-1.563-11.348-4.693c-3.161-3.128-4.74-6.927-4.74-11.397V18.576c0-4.469,1.579-8.267,4.74-11.396
		c3.16-3.127,6.944-4.694,11.348-4.694h74.028l-0.287,15.228h-66.653V26.143z"/>
</g>
<g>
	<g>
		<path fill="#8E959C" d="M501.393,85.119c5.601,3.131,10.128,6.928,13.57,11.398l22.354,29.016
			c3.446,4.47,4.774,8.271,3.994,11.398c-0.78,3.129-3.437,4.691-7.974,4.691h-57.555c-4.47,0-9.491-1.562-15.062-4.691
			c-5.569-3.128-10.079-6.929-13.522-11.398l-22.354-29.016c-3.443-4.47-4.792-8.267-4.042-11.398
			c0.75-3.127,3.358-4.693,7.83-4.693h57.557C490.722,80.426,495.79,81.992,501.393,85.119z M491.027,95.655h-43.665l23.68,30.741
			h43.668L491.027,95.655z"/>
	</g>
	<g>
		<path fill="#8E959C" d="M591.391,95.655h-43.857l35.418,45.968h-23.085l-27.988-36.201l-7.521-9.767l-11.64-15.229h74.031
			c4.403,0,9.391,1.566,14.961,4.693c5.572,3.131,10.082,6.928,13.523,11.398l34.755,45.106h-23.369L591.391,95.655z"/>
	</g>
	<g>
		<path fill="#8E959C" d="M653.914,104.083l62.658,0.287l10.037,13.024l-62.667-0.287l7.155,9.289h43.766l22.825-0.098
			l12.087,15.324H675.75c-4.411,0-9.396-1.562-14.968-4.691c-5.569-3.128-10.075-6.929-13.517-11.398l-22.362-29.016
			c-3.44-4.47-4.791-8.267-4.037-11.398c0.749-3.127,3.329-4.693,7.73-4.693h74.029l11.449,15.229h-66.657L653.914,104.083z"/>
	</g>
</g>
<g>
	<g>
		<path fill="#FDE92D" d="M504.067,80.67c5.599,3.128,10.124,6.925,13.566,11.397l22.355,29.017
			c3.446,4.471,4.773,8.269,3.993,11.395c-0.779,3.131-3.436,4.695-7.972,4.695h-57.557c-4.47,0-9.49-1.564-15.062-4.695
			c-5.569-3.126-10.077-6.924-13.52-11.395l-22.356-29.017c-3.441-4.472-4.79-8.269-4.042-11.397
			c0.75-3.128,3.358-4.693,7.831-4.693h57.554C493.391,75.977,498.459,77.542,504.067,80.67z M493.699,91.206h-43.668l23.679,30.738
			h43.673L493.699,91.206z"/>
		<path fill="#214670" d="M536.01,138.508h-57.557c-4.682,0-9.969-1.637-15.716-4.866c-5.702-3.201-10.387-7.152-13.923-11.744
			l-22.356-29.017c-3.736-4.855-5.136-8.951-4.282-12.521c0.625-2.608,2.717-5.716,9.128-5.716h57.554
			c4.74,0,10.076,1.636,15.859,4.862c5.739,3.206,10.439,7.159,13.973,11.749l22.355,29.016c3.689,4.785,5.113,9.002,4.231,12.532
			C544.627,135.405,542.495,138.508,536.01,138.508z M431.304,77.311c-5.068,0-6.156,2.095-6.534,3.67
			c-0.646,2.699,0.633,6.155,3.801,10.272l22.356,29.016c3.316,4.306,7.73,8.022,13.116,11.046
			c5.344,3.003,10.191,4.524,14.41,4.524h57.557c5.163,0,6.284-2.102,6.678-3.685c0.675-2.699-0.59-6.15-3.756-10.258
			l-22.355-29.017c-3.312-4.301-7.739-8.018-13.16-11.047c-5.38-3.001-10.278-4.523-14.559-4.523H431.304z M520.095,123.277h-47.042
			l-25.734-33.406h47.036L520.095,123.277z M474.366,120.61h40.307l-21.629-28.071h-40.302L474.366,120.61z"/>
	</g>
	<g>
		<path fill="#FDE92D" d="M594.063,91.206h-43.859l35.416,45.968h-23.081l-27.99-36.203l-7.523-9.766l-11.638-15.229h74.029
			c4.405,0,9.392,1.565,14.961,4.693c5.575,3.128,10.082,6.925,13.521,11.397l34.759,45.107h-23.371L594.063,91.206z"/>
		<path fill="#214670" d="M655.371,138.508h-26.742l-35.224-45.969h-40.49l35.416,45.969h-26.447L525.968,92.02L512.69,74.643
			h76.727c4.613,0,9.868,1.637,15.614,4.864c5.709,3.202,10.395,7.155,13.925,11.747L655.371,138.508z M629.946,135.84h20.001
			l-33.104-42.959c-3.312-4.306-7.725-8.022-13.117-11.047c-5.344-3.001-10.158-4.523-14.309-4.523h-71.331l10,13.085l7.52,9.762
			l27.588,35.683h19.715l-35.415-45.968h47.229L629.946,135.84z"/>
	</g>
	<g>
		<path fill="#FDE92D" d="M656.582,99.632l62.659,0.287l10.036,13.023l-62.665-0.288l7.159,9.29h43.762l22.821-0.096l12.091,15.326
			H678.42c-4.405,0-9.395-1.564-14.969-4.695c-5.568-3.126-10.074-6.924-13.518-11.395l-22.36-29.017
			c-3.44-4.472-4.791-8.269-4.039-11.397c0.751-3.128,3.327-4.693,7.732-4.693h74.029l11.447,15.229h-66.654L656.582,99.632z"/>
		<path fill="#214670" d="M755.197,138.508H678.42c-4.617,0-9.873-1.637-15.623-4.866c-5.697-3.2-10.381-7.15-13.92-11.744
			l-22.36-29.017c-3.737-4.858-5.137-8.954-4.279-12.523c0.626-2.606,2.701-5.714,9.029-5.714h74.694l13.454,17.896h-66.616
			l4.44,5.762l62.659,0.287l12.1,15.7L669.333,114l5.096,6.61h43.104L741,120.512L755.197,138.508z M631.267,77.311
			c-4.979,0-6.058,2.095-6.436,3.671c-0.648,2.697,0.629,6.153,3.8,10.272l22.359,29.016c3.317,4.307,7.73,8.023,13.114,11.046
			c5.344,3.003,10.16,4.524,14.315,4.524h71.273l-9.983-12.655l-22.172,0.093h-44.424l-9.224-11.97l62.664,0.288l-7.973-10.346
			l-62.659-0.287l-8.547-11.091h66.697l-9.443-12.561H631.267z"/>
	</g>
</g>
<g>
	<g>
		<path fill="#214670" d="M791.349,163.06L699.593,35.304H682.98c-3.7,0-7.816-1.112-12.232-3.306
			c-4.301-2.135-8.048-4.877-11.134-8.15c-4.623-4.896-6.613-9.362-6.084-13.656c0.29-2.321,1.884-7.708,10.409-7.708h108.456
			l115.137,160.519L791.349,163.06z M663.939,8.959c-3.731,0-3.891,1.271-3.984,2.031c-0.271,2.191,1.239,5.103,4.366,8.414
			c2.562,2.715,5.692,5.001,9.306,6.795c3.515,1.746,6.661,2.63,9.354,2.63h19.934l91.754,127.752l80.256-0.046L769.073,8.959
			H663.939z"/>
	</g>
</g>
<polygon fill="#8E959C" points="362.106,74.643 315.837,74.643 380.089,163.032 426.41,163.002 "/>
<polygon fill="#8E959C" points="51.031,74.643 115.28,163.033 133.656,162.997 69.36,74.643 "/>
<polygon fill="#8E959C" points="2.302,74.643 66.553,163.035 78.478,162.991 14.182,74.643 "/>
<polygon fill="#8E959C" points="262.873,74.643 327.125,163.032 370.224,163.001 305.92,74.643 "/>
<polygon fill="#8E959C" points="209.913,74.643 274.167,163.032 310.813,163.001 246.512,74.643 "/>
<polygon fill="#8E959C" points="156.953,74.643 220.67,162.301 221.203,163.032 251.406,163 187.103,74.643 "/>
<polygon fill="#8E959C" points="103.993,74.643 167.709,162.301 168.242,163.032 191.994,162.999 127.693,74.643 "/>
<path fill="#214670" d="M518.039,199.36c-3.217,0.017-11.489,0.048-11.492,0.048h-25.938l-5.36-7.776
	c7.43,0.03,33.085,0.123,35.165,0.136c-0.946-1.372-2.18-3.158-3.117-4.521c-2.057-0.011-27.729-0.104-35.163-0.134l-5.056-7.333
	c0,0,34.986,0,37.466,0c-1.014-1.508-2.802-4.179-3.841-5.734c-2.587,0-40.2,0-40.2,0c-2.121,0-3.397,0.721-3.9,2.203
	c-0.503,1.479-0.036,3.227,1.422,5.341l11.034,16.012c1.462,2.111,3.404,3.859,5.945,5.339c2.546,1.48,4.814,2.203,6.938,2.203
	c0,0,37.608,0,40.195,0C521.031,203.584,519.115,200.88,518.039,199.36z"/>
<g>
	<path fill="#214670" d="M543.884,174.046c-1.192,0-8.666,0-11.824,0c4.504,3.485,38.637,29.915,40.167,31.098
		c1.252,0,8.811,0,10.066,0c-0.101-1.183-2.405-27.612-2.71-31.098c-3.158,0-10.643,0-11.832,0
		c0.154,1.273,2.531,21.063,2.531,21.063S545.493,175.328,543.884,174.046z"/>
</g>
<path fill="#214670" d="M670.671,199.36c-3.217,0.017-11.487,0.048-11.491,0.048h-25.939l-5.355-7.77
	c9.504,0.036,33.223,0.117,35.16,0.129c-0.946-1.372-2.179-3.158-3.113-4.521c-1.92-0.011-25.651-0.092-35.161-0.127l-5.06-7.34
	c0,0,34.98,0,37.462,0c-1.009-1.508-2.801-4.179-3.845-5.734c-2.586,0-40.195,0-40.195,0c-2.124,0-3.4,0.721-3.899,2.203
	c-0.501,1.479-0.036,3.227,1.423,5.341l11.037,16.012c1.454,2.111,3.398,3.859,5.938,5.339c2.545,1.48,4.814,2.203,6.94,2.203
	c0,0,37.609,0,40.194,0C673.665,203.584,671.747,200.88,670.671,199.36z"/>
<g>
	<path fill="#214670" d="M725.719,174.046c0,0-37.708,0-40.232,0c1.616,2.364,4.829,7.069,4.829,7.069l3.714,5.385
		c0,0,11.296,16.324,12.9,18.644c1.919,0,8.332,0,10.255,0c-1.653-2.396-17.483-25.363-17.483-25.363h27.356
		c0,0,15.729,22.961,17.375,25.363c1.937,0,8.477,0,10.402,0c-1.647-2.389-16.234-23.554-16.234-23.554
		c-1.457-2.114-3.399-3.86-5.944-5.341C730.113,174.767,727.846,174.046,725.719,174.046z"/>
</g>
<g>
	<path fill="#214670" d="M804.995,205.144c2,0,9.758,0,11.757,0c-1.65-2.396-17.483-25.363-17.483-25.363s15.592,0,17.911,0
		c-1.058-1.532-2.898-4.202-3.952-5.734c-2.501,0-44.976,0-47.472,0c1.053,1.532,2.896,4.202,3.953,5.734c2.315,0,17.804,0,17.804,0
		S803.346,202.747,804.995,205.144z"/>
</g>
<g>
	<path fill="#214670" d="M896.845,179.465c-1.035-1.498-2.702-3.917-3.737-5.419c-6.949,0.011-39.896,0-39.9,0
		c-2.386,0-3.834,0.728-4.423,2.226c-0.575,1.477-0.162,3.201,1.262,5.265l1.567,2.274c1.418,2.056,3.309,3.72,5.783,5.088
		c2.583,1.432,5.372,2.35,8.083,2.718h28.258l5.738,8.325c0,0-34.37-0.146-36.906-0.155c1.03,1.487,2.67,3.873,3.691,5.357
		c2.542,0,39.799,0,39.799,0c2.361,0,3.821-0.734,4.474-2.245c0.641-1.475,0.251-3.206-1.191-5.297l-2.73-3.966
		c-1.374-1.992-3.146-3.488-5.413-4.571c-2.5-1.193-5.218-1.929-7.941-2.178h-28.201l-5.08-7.367
		C859.976,179.52,894.329,179.469,896.845,179.465z"/>
</g>
</svg>
