<?xml version="1.0" encoding="UTF-8"?>
<svg id="Layer_4" xmlns="http://www.w3.org/2000/svg" version="1.1" viewBox="0 0 995.84 795.37">
  <!-- Generator: Adobe Illustrator 30.4.0, SVG Export Plug-In . SVG Version: 2.1.4 Build 226)  -->
  <defs>
    <style>
      .st0 {
        fill: #30363e;
        stroke-width: 4px;
      }

      .st0, .st1 {
        stroke: #9d9d9c;
        stroke-miterlimit: 10;
      }

      .st2 {
        stroke: #5f9fa4;
        stroke-width: 15px;
      }

      .st2, .st3 {
        fill: none;
        stroke-linejoin: round;
      }

      .st4 {
        fill: #dfe3ec;
      }

      .st3 {
        stroke: #1d1d1b;
        stroke-width: 26px;
      }

      .st5 {
        display: none;
      }

      .st1 {
        fill: #43484f;
        stroke-width: 2px;
      }
    </style>
  </defs>
  <path class="st0" d="M929.52,2H71.26C35.53,2,6.39,29.48,6.17,63.37L2,731.99c-.21,33.9,28.59,61.37,64.32,61.37h858.26c35.74,0,64.88-27.48,65.09-61.37l4.17-668.62c.21-33.9-28.59-61.37-64.32-61.37Z"/>
  <g class="st5">
    <polygon class="st3" points="2823.03 40.5 2749.14 169.77 2902.76 167.28 2823.03 40.5"/>
    <polygon class="st2" points="2823.03 40.5 2749.14 169.77 2902.76 167.28 2823.03 40.5"/>
  </g>
  <g>
    <path class="st1" d="M196.79,295.47c-22.51.19-41.43,16.91-44.44,39.21-2.1,15.6-3.45,32.51-3.56,50.57-.13,20.28,1.31,39.17,3.67,56.45,3.5,25.57,25.52,44.52,51.33,44.3l125.76-1.07c11.79-.1,23.17-4.29,32.2-11.86l68.03-56.99c16.19-13.56,15.72-40.95-.91-53.88l-73.49-57.12c-9.04-7.02-20.18-10.79-31.62-10.69l-126.98,1.08Z"/>
    <path class="st4" d="M200.7,396.28l41.85,34.38c5.13,4.21,12.84.56,12.84-6.07v-68.76c0-6.63-7.72-10.28-12.84-6.07l-41.85,34.38c-3.83,3.14-3.83,9,0,12.14Z"/>
  </g>
  <g>
    <path class="st1" d="M799.05,484.92c22.51-.19,41.43-16.91,44.44-39.21,2.1-15.6,3.45-32.51,3.56-50.57.13-20.28-1.31-39.17-3.67-56.45-3.5-25.57-25.52-44.52-51.33-44.3l-125.76,1.07c-11.79.1-23.17,4.29-32.2,11.86l-68.03,56.99c-16.19,13.56-15.72,40.95.91,53.88l73.49,57.12c9.04,7.02,20.18,10.79,31.62,10.69l126.98-1.08Z"/>
    <path class="st4" d="M795.14,384.11l-41.85-34.38c-5.13-4.21-12.84-.56-12.84,6.07v68.76c0,6.63,7.72,10.28,12.84,6.07l41.85-34.38c3.83-3.14,3.83-9,0-12.14Z"/>
  </g>
  <g>
    <path class="st1" d="M403.19,691.33c.19,22.51,16.91,41.43,39.21,44.44,15.6,2.1,32.51,3.45,50.57,3.56,20.28.13,39.17-1.31,56.45-3.67,25.57-3.5,44.52-25.52,44.3-51.33l-1.07-125.76c-.1-11.79-4.29-23.17-11.86-32.2l-56.99-68.03c-13.56-16.19-40.95-15.72-53.88.91l-57.12,73.49c-7.02,9.04-10.79,20.18-10.69,31.62l1.08,126.98Z"/>
    <path class="st4" d="M504,687.41l34.38-41.85c4.21-5.13.56-12.84-6.07-12.84h-68.76c-6.63,0-10.28,7.72-6.07,12.84l34.38,41.85c3.14,3.83,9,3.83,12.14,0Z"/>
  </g>
  <g>
    <path class="st1" d="M592.65,89.06c-.19-22.51-16.91-41.43-39.21-44.44-15.6-2.1-32.51-3.45-50.57-3.56-20.28-.13-39.17,1.31-56.45,3.67-25.57,3.5-44.52,25.52-44.3,51.33l1.07,125.76c.1,11.79,4.29,23.17,11.86,32.2l56.99,68.03c13.56,16.19,40.95,15.72,53.88-.91l57.12-73.49c7.02-9.04,10.79-20.18,10.69-31.62l-1.08-126.98Z"/>
    <path class="st4" d="M491.84,92.97l-34.38,41.85c-4.21,5.13-.56,12.84,6.07,12.84h68.76c6.63,0,10.28-7.72,6.07-12.84l-34.38-41.85c-3.14-3.83-9-3.83-12.14,0Z"/>
  </g>
  <g>
    <rect class="st1" x="103.93" y="5.89" width="144.56" height="236.89" rx="42.45" ry="42.45" transform="translate(300.54 -51.88) rotate(90)"/>
    <path class="st4" d="M234.76,119.97c-24.6-33.73-73.7-37.35-103.02-7.24l-.29-24.92c-.01-1.21-.67-2.26-1.62-2.71-.88-.42-2.35-.3-3.13.5l-14.24,14.63c-1.98,2.04-3.28,4.64-3.24,7.53l.54,38.5c.04,2.56,2.6,5.06,5.16,5.02l38.61-.51c2.78-.04,5.27-1.34,7.07-3.18l14.51-14.88c.78-.8.85-2.28.42-3.15-.49-.96-1.55-1.54-2.75-1.53l-24.83.3c19.86-20.26,52.59-17.37,68.77,5.09,4.36,6.05,6.98,12.77,8.01,19.62l22.72.37c-1.09-11.66-5.22-23.22-12.69-33.45Z"/>
  </g>
  <g>
    <rect class="st1" x="747.35" y="5.89" width="144.56" height="236.89" rx="42.45" ry="42.45" transform="translate(943.96 -695.3) rotate(90)"/>
    <path class="st4" d="M761.08,119.97c24.6-33.73,73.7-37.35,103.02-7.24l.29-24.92c.01-1.21.67-2.26,1.62-2.71.88-.42,2.35-.3,3.13.5l14.24,14.63c1.98,2.04,3.28,4.64,3.24,7.53l-.54,38.5c-.04,2.56-2.6,5.06-5.16,5.02l-38.61-.51c-2.78-.04-5.27-1.34-7.07-3.18l-14.51-14.88c-.78-.8-.85-2.28-.42-3.15.49-.96,1.55-1.54,2.75-1.53l24.83.3c-19.86-20.26-52.59-17.37-68.77,5.09-4.36,6.05-6.98,12.77-8.01,19.62l-22.72.37c1.09-11.66,5.22-23.22,12.69-33.45Z"/>
  </g>
  <g>
    <rect class="st1" x="770.99" y="573.97" width="99.63" height="235.67" rx="28.76" ry="28.76" transform="translate(1512.6036 -128.9977) rotate(90)"/>
    <g>
      <path class="st4" d="M738.04,673.89h16.38c4.56,0,8.09,1.28,10.44,3.63,2,2,3.07,4.81,3.07,8.19v.1c0,5.78-3.12,9.42-7.68,11.11l8.75,12.8h-9.21l-7.68-11.47h-6.19v11.47h-7.88v-35.84ZM753.91,691.29c3.84,0,6.04-2.05,6.04-5.07v-.1c0-3.38-2.35-5.12-6.19-5.12h-7.83v10.29h7.99Z"/>
      <path class="st4" d="M775.06,673.89h27.03v7.01h-19.2v7.27h16.89v7.01h-16.89v7.53h19.45v7.01h-27.29v-35.84Z"/>
      <path class="st4" d="M806.9,704.5l4.66-5.58c3.23,2.66,6.6,4.35,10.7,4.35,3.23,0,5.17-1.28,5.17-3.38v-.1c0-2-1.23-3.02-7.22-4.56-7.22-1.84-11.88-3.84-11.88-10.96v-.1c0-6.5,5.22-10.8,12.54-10.8,5.22,0,9.68,1.64,13.31,4.56l-4.1,5.94c-3.17-2.2-6.3-3.53-9.32-3.53s-4.61,1.38-4.61,3.12v.1c0,2.35,1.54,3.12,7.73,4.71,7.27,1.89,11.37,4.51,11.37,10.75v.1c0,7.12-5.43,11.11-13.16,11.11-5.43,0-10.9-1.89-15.2-5.73Z"/>
      <path class="st4" d="M842.13,673.89h27.03v7.01h-19.2v7.27h16.89v7.01h-16.89v7.53h19.45v7.01h-27.29v-35.84Z"/>
      <path class="st4" d="M884.78,681.15h-10.9v-7.27h29.69v7.27h-10.9v28.57h-7.88v-28.57Z"/>
    </g>
  </g>
</svg>